<svg xmlns="http://www.w3.org/2000/svg" viewBox="0 0 1080 330.03"><defs><style>.cls-1{fill:#0c1a3c;}.cls-2{fill:#253150;}</style></defs><title>Asset 2</title><g id="Layer_2" data-name="Layer 2"><g id="Layer_1-2" data-name="Layer 1"><g id="Group_23" data-name="Group 23"><g id="Group_18" data-name="Group 18"><path class="cls-1" d="M500.92,176.84v39.92H0V89.63c25.61-8.78,52.4-18.87,80-30.45,77.54-32.54,103.78,5.52,225.84,58.45l.44.2c3.53,1.52,7.15,3.07,10.85,4.62l3.56,1.49,6.23,2.57h0l.74.31s0,0,0,0q21.76,8.93,40.34,15.82h0c21.39,8,39.75,14.08,55.41,18.78l1,.3.51.15q8.24,2.44,15.46,4.39c14.88,4,26.65,6.51,35.69,8.07l1.8.3c.92.16,1.82.3,2.68.43C494.85,177.26,500.92,176.84,500.92,176.84Z"/><path class="cls-2" d="M480.59,174.78l-2.69-.15-1.3-.07c-15.9-.9-32.13-2.49-48.56-4.9q-10.1-1.47-20.27-3.37l-.63-.12-.75-.15a460.75,460.75,0,0,1-102.6-31.91q-2.87-1.28-5.71-2.61l-7.16-3.33-7.59-3.5-.35-.16C106.66,43.61,124.44,77.14,0,112.39v-23C25.61,80.57,52.4,70.48,80,58.9c77.63-32.58,103.84,5.61,226.27,58.64l.45.19q5.32,2.31,10.91,4.65l3.06,1.28q3.53,1.47,7,2.87l.75.31c14.68,6,28.26,11.3,40.79,16,21.12,7.83,39.27,13.85,54.74,18.49l1,.3.5.15q8.25,2.44,15.47,4.38c14.12,3.78,25.41,6.21,34.22,7.76C477.08,174.22,478.89,174.52,480.59,174.78Z"/></g><g id="Group_19" data-name="Group 19"><path class="cls-1" d="M289.16,224.66l1.28-7.9,2.35-14.55,1.6-10h0l0-.29.37-2.27,9-55.58.93-5.78.48-3s7.76,1,22.47,1.46c0,0,0,0,0,0l.71,0h0c8.16.24,18.39.31,30.56-.07,5.26-.16,10.87-.4,16.84-.75h0l.61,0c52.14-3,130.79-13.82,229-46C739.81,36,806.4-9.15,882.88,2.46H883c28.54,4.36,58.42,16.61,93.75,39.77,30.36,19.92,66.2,37.83,103.3,53.59V217.21"/><path id="Path_9" data-name="Path 9" class="cls-2" d="M882.94,2.46C784,13.19,704.64,78.82,588.69,120c-152.2,54.07-279.59,10.21-282.35,9-.54-.24-1.08-.48-1.62-.69l.48-3.26s115.61,15.11,300.2-45.33C739.84,35.7,803.94-11.39,882.94,2.46Z"/></g><g id="Group_20" data-name="Group 20"><path class="cls-1" d="M697.13,245.15v40H0v-77c53.49-8.87,137.48-27.17,234.72-64h0q3.56-1.34,7.12-2.72,16.93-6.54,34.33-13.82,3.65-1.53,7.15-2.85a152.73,152.73,0,0,1,22.95-6.84l.44-.1c24.49-5,44.79-1.38,68.46,8l.63.25h0c13.2,5.3,27.48,12.39,44.12,20.77a0,0,0,0,0,0,0c5.25,2.64,10.73,5.42,16.5,8.3l3.33,1.67h0l1.23.62.37.18c3.53,1.76,7.15,3.55,10.89,5.38,7.19,3.52,14.79,7.17,22.86,10.93l1,.45.5.23q11.49,5.34,24.32,10.93,7.71,3.36,15.95,6.79c22.2,9.22,42,16.85,59.53,23.16q14.46,5.19,26.94,9.22C672,246.94,697.13,245.15,697.13,245.15Z"/></g><path id="Path_11" data-name="Path 11" class="cls-2" d="M276.18,127.22q-17.39,7.31-34.33,13.82c-2.91,1.12-5.81,2.23-8.68,3.31,29.24-5.44,71.36-24.51,101-22.81C370.3,123.6,411.42,155.9,437,155.08h0C366.89,120,337.61,101.45,276.18,127.22Z"/><g id="Group_21" data-name="Group 21"><path id="Path_12" data-name="Path 12" class="cls-1" d="M998.26,225.71v40H239.5V196.57s150-9.7,337.83-88.49C657.92,74.26,683.09,116.7,818,172.84c43.37,18,77.5,29.95,103.81,37.82C977.38,227.21,998.26,225.71,998.26,225.71Z"/></g><g id="Group_22" data-name="Group 22"><path class="cls-1" d="M1080,224.66V330H0V228.84c36.84-1.85,84.75-5.39,140.24-12.08,30.93-3.74,64.22-8.45,99.26-14.41q26.81-4.54,54.89-10.1h0c26-5.16,52.72-11,80-17.64q17.17-4.19,33.42-8.32,8.72-2.22,17.18-4.42l.5-.13q8.08-2.1,15.94-4.17c20.19-5.32,39.3-10.49,57.51-15.42h0c36.26-9.81,68.95-18.64,99.43-25.67h.06c24.58-5.64,47.72-10.14,70.15-13h0c44.32-5.71,85.84-5.16,130.09,4.94l3.39.79c29.08,6.94,59.41,18,92.52,34.15,58.45,28.51,124,53.4,185.42,73.9"/><path class="cls-2" d="M802.05,108.88c-1.13-.18-2.25-.35-3.38-.51-38.32-5.64-77.37-4.81-117.13.11h0c-73.95,9.14-150.38,32.41-229.25,54.47l-11.36,3.17-.51.14L428,169.66c-16.67,4.55-33.45,9-50.33,13.14q-44.9,11.08-84.92,19.41Q265,208,239.5,212.66q-11.83,2.18-23.2,4.1C119,233.31,48,237.43,0,237.09v-8.53c36.32-1.83,83.4-5.29,137.89-11.8,31.59-3.78,65.68-8.58,101.61-14.69q26.82-4.55,54.94-10.11c26-5.16,52.69-11,79.9-17.63q16.86-4.1,32.8-8.16,8.78-2.23,17.3-4.45l.51-.13q8.15-2.11,16.07-4.2c19.53-5.15,38.06-10.16,55.74-14.94,37.9-10.26,71.9-19.46,103.55-26.7h0c23.65-5.39,46-9.7,67.65-12.51C713.65,97.29,756.33,98,802.05,108.88Z"/></g></g></g></g></svg>